<svg xmlns="http://www.w3.org/2000/svg" viewBox="0 0 100 100">
  <circle cx="50" cy="50" r="45" fill="none" stroke="#089" stroke-width="10" />
  <path
    fill="#089"
    d="M56.55 20c-3.874 0-7.485 2.99-7.485 6.982 0 3.993 3.611 7.078 7.484 7.003a7.26 7.274 0 0 0 7.485-6.982c0-3.965-3.612-7.003-7.485-7.003zm-6.363 20.33c-4.584 0-10.487.713-13.92 4.059-6.184 5.999 3.096 12.41 7.914 15.09-2.077 7.5-6.137 19.685 5.838 20.444v.066c4.48.112 10.554-.6 13.762-4.125 5.782-6.41-2.245-12.344-7.418-15.156 2.161-7.62 6.07-20.087-6.176-20.378zm-8.466 5.14c1.446-.092 3.035.339 3.854 1.028l.01.024c2.067 1.715.43 6.477-.085 8.483-1.759-1.078-7.24-4.602-6.762-7.414.238-1.406 1.538-2.022 2.983-2.115zM55.11 65.143c2.807 1.612 4.959 3.365 5.614 5.38l-.014-.008c.935 3-3.068 5.137-5.341 3.515-2.489-1.875-.935-6.562-.261-8.886z"
  />
</svg>
