<svg xmlns="http://www.w3.org/2000/svg" viewBox="0 0 100 100">
  <path
    d="M84.71 18.452a82.703 82.703 0 0 0-20.633-6.35 56.677 56.677 0 0 0-2.645 5.375 76.83 76.83 0 0 0-22.893 0 56.92 56.92 0 0 0-2.645-5.37 83.285 83.285 0 0 0-20.644 6.36C2.196 37.786-1.342 56.623.423 75.195a83.16 83.16 0 0 0 25.304 12.7 61.115 61.115 0 0 0 5.42-8.735 53.813 53.813 0 0 1-8.535-4.074c.719-.522 1.418-1.059 2.094-1.576a59.436 59.436 0 0 0 50.589 0c.68.559 1.383 1.096 2.09 1.576a54.02 54.02 0 0 1-8.55 4.081 60.563 60.563 0 0 0 5.42 8.731 82.782 82.782 0 0 0 25.32-12.7c2.078-21.53-3.55-40.194-14.865-56.745Zm-51.322 45.32c-4.932 0-9.007-4.474-9.007-9.977 0-5.507 3.931-10.024 8.992-10.024 5.057 0 9.1 4.517 9.014 10.02-.087 5.507-3.972 9.982-9 9.982zm33.222 0c-4.94 0-8.996-4.474-8.996-9.977 0-5.507 3.931-10.024 8.996-10.024 5.064 0 9.078 4.517 8.991 10.02-.087 5.507-3.965 9.982-8.991 9.982z"
  />
</svg>
