<svg xmlns="http://www.w3.org/2000/svg" viewBox="0 0 1500 1500" fill="#e7dbda">
  <path
    d="M749.3 1468.7c-97.2 0-191.5-19-280.2-56.6-85.7-36.3-162.7-88.1-228.8-154.2-66.1-66.1-118-143.1-154.3-228.8C48.4 940.3 29.4 846 29.4 748.8c0-97.2 19-191.5 56.6-280.2 36.3-85.7 88.2-162.7 154.3-228.9 66.1-66.1 143.1-118 228.8-154.3 88.8-37.6 183-56.6 280.2-56.6 97.2 0 191.5 19 280.3 56.6 85.8 36.3 162.8 88.2 228.9 154.3 66.1 66.1 118.1 143.1 154.3 228.9 37.6 88.8 56.6 183.1 56.6 280.2 0 97.2-19 191.5-56.6 280.3-36.3 85.7-88.2 162.7-154.3 228.8-66.1 66.1-143.1 118-228.9 154.2-88.8 37.6-183.1 56.6-280.3 56.6zm0-1435c-96.5 0-190.1 18.9-278.3 56.2-85.1 36-161.6 87.6-227.3 153.3C178 308.9 126.5 385.3 90.5 470.5c-37.3 88.1-56.2 181.8-56.2 278.3S53.2 939 90.5 1027.1c36 85.1 87.6 161.6 153.2 227.2 65.7 65.6 142.1 117.2 227.3 153.2 88.1 37.3 181.8 56.2 278.3 56.2s190.2-18.9 278.4-56.2c85.2-36 161.6-87.5 227.3-153.2 65.7-65.7 117.2-142.1 153.3-227.2 37.3-88.1 56.2-181.8 56.2-278.3s-18.9-190.2-56.2-278.3c-36-85.1-87.6-161.6-153.3-227.3-65.7-65.7-142.2-117.2-227.3-153.3-88.2-37.3-181.9-56.2-278.4-56.2z"
  />
  <path
    id="Outer_circle_2_3_"
    d="M750.6 1500.1c-101.3 0-199.5-19.8-291.9-58.9-89.3-37.8-169.5-91.8-238.4-160.7-68.9-68.9-123-149.1-160.7-238.4C20.5 949.6.7 851.4.7 750.1c0-101.2 19.8-199.5 58.9-291.9 37.8-89.3 91.9-169.5 160.7-238.4 68.9-68.9 149.1-123 238.4-160.7C551.2 20 649.4.1 750.6.1c101.3 0 199.5 19.8 292 58.9 89.3 37.8 169.5 91.9 238.4 160.7 68.9 68.9 122.9 149.1 160.7 238.4 39.1 92.5 58.9 190.7 58.9 291.9 0 101.3-19.8 199.5-58.9 292-37.8 89.3-91.8 169.5-160.7 238.4-68.9 68.9-149.1 122.9-238.4 160.7-92.5 39.2-190.7 59-292 59zm0-1495c-100.6 0-198.1 19.7-290 58.6-88.7 37.5-168.4 91.3-236.8 159.7-68.4 68.4-122.2 148.1-159.7 236.8C25.3 552 5.6 649.6 5.6 750.2s19.7 198.2 58.6 290c37.5 88.7 91.2 168.4 159.7 236.8 68.4 68.4 148.1 122.1 236.8 159.6 91.8 38.8 189.4 58.5 290 58.5s198.2-19.7 290-58.5c88.7-37.5 168.4-91.2 236.8-159.6 68.4-68.4 122.1-148.1 159.6-236.8 38.8-91.8 58.5-189.4 58.5-290s-19.7-198.2-58.5-290c-37.5-88.7-91.2-168.4-159.6-236.8-68.4-68.4-148.1-122.2-236.8-159.7C948.8 24.8 851.2 5.1 750.6 5.1z"
  />
  <path
    d="M749.5 990.6c-64.6 0-125.2-25.2-170.9-70.8-45.6-45.7-70.8-106.4-70.8-170.9 0-64.6 25.1-125.3 70.8-170.9 45.6-45.6 106.3-70.8 170.9-70.8 133.3 0 241.7 108.4 241.7 241.7-.1 133.2-108.5 241.7-241.7 241.7zm0-478.5c-63.2 0-122.7 24.6-167.4 69.3-44.7 44.7-69.3 104.1-69.3 167.4 0 63.2 24.6 122.7 69.3 167.4 44.7 44.7 104.1 69.4 167.4 69.4 130.5 0 236.7-106.2 236.7-236.8-.1-130.5-106.2-236.7-236.7-236.7z"
  />
  <path
    id="XMLID_75_"
    d="M1165.9 1228.5l-4.3-2.5c20.8-36.1 50.8-66.5 86.7-87.6 36.9-21.8 79.3-33.3 122.5-33.3v5c-42.3 0-83.8 11.3-119.9 32.6-35.2 20.7-64.6 50.4-85 85.8z"
  />
  <path
    d="M749.5 1229.8c-133.3 0-241.7-108.4-241.7-241.7 0-64.6 25.1-125.3 70.8-170.9 45.6-45.6 106.3-70.8 170.9-70.8 133.3 0 241.7 108.4 241.7 241.7-.1 133.3-108.5 241.7-241.7 241.7zm0-478.3c-63.2 0-122.7 24.6-167.4 69.3-44.7 44.7-69.3 104.1-69.3 167.4 0 130.5 106.2 236.7 236.7 236.7s236.7-106.2 236.7-236.7c-.1-130.6-106.2-236.7-236.7-236.7z"
  />
  <path
    d="M956.6 1349.3c-64.6 0-125.3-25.1-170.9-70.7-45.6-45.6-70.7-106.3-70.7-170.9 0-64.5 25.1-125.2 70.7-170.8C831.3 891.2 892 866 956.6 866c133.3 0 241.7 108.4 241.7 241.6 0 64.6-25.2 125.3-70.8 170.9-45.7 45.7-106.3 70.8-170.9 70.8zm0-478.3c-63.3 0-122.7 24.6-167.4 69.3-44.7 44.7-69.3 104.1-69.3 167.3 0 63.3 24.6 122.7 69.3 167.4 44.7 44.7 104.1 69.3 167.4 69.3 63.2 0 122.6-24.6 167.3-69.3 44.7-44.7 69.4-104.2 69.4-167.4 0-130.5-106.2-236.6-236.7-236.6z"
  />
  <path
    d="M956.6 1110.1c-64.6 0-125.3-25.1-170.9-70.7-45.6-45.6-70.7-106.3-70.7-170.9 0-64.6 25.1-125.2 70.7-170.9 45.6-45.6 106.3-70.8 170.9-70.8 133.3 0 241.7 108.4 241.7 241.6 0 64.6-25.2 125.2-70.8 170.9-45.7 45.7-106.3 70.8-170.9 70.8zm0-478.2c-63.3 0-122.7 24.6-167.4 69.3-44.7 44.7-69.3 104.1-69.3 167.3 0 63.3 24.6 122.7 69.3 167.3 44.7 44.7 104.1 69.3 167.4 69.3 63.2 0 122.6-24.6 167.3-69.3 44.7-44.7 69.4-104.1 69.4-167.3 0-130.5-106.2-236.6-236.7-236.6z"
  />
  <path
    d="M542.3 871c-64.6 0-125.2-25.1-170.9-70.8-45.6-45.6-70.8-106.3-70.8-170.8 0-64.6 25.1-125.3 70.8-170.9 45.6-45.6 106.3-70.8 170.9-70.8 64.6 0 125.2 25.1 170.9 70.8 45.6 45.6 70.8 106.3 70.8 170.9 0 64.5-25.1 125.2-70.8 170.8-45.7 45.7-106.4 70.8-170.9 70.8zm0-478.3c-63.2 0-122.7 24.6-167.4 69.3-44.7 44.7-69.3 104.1-69.3 167.4 0 130.5 106.2 236.6 236.7 236.6S779 759.9 779 629.4c0-63.2-24.6-122.7-69.3-167.4-44.8-44.7-104.2-69.3-167.4-69.3z"
  />
  <path
    d="M542.3 1110.1c-64.6 0-125.3-25.1-170.9-70.7-45.6-45.6-70.8-106.3-70.8-170.9 0-64.5 25.1-125.2 70.8-170.9 45.6-45.6 106.3-70.8 170.9-70.8 64.6 0 125.2 25.1 170.9 70.8 45.6 45.6 70.8 106.3 70.8 170.9 0 64.6-25.1 125.3-70.8 170.9-45.7 45.6-106.3 70.7-170.9 70.7zm0-478.2c-63.2 0-122.7 24.6-167.4 69.3-44.7 44.7-69.3 104.1-69.3 167.3 0 63.2 24.6 122.7 69.3 167.3 44.7 44.7 104.1 69.3 167.4 69.3 63.2 0 122.7-24.6 167.4-69.3 44.7-44.7 69.3-104.1 69.3-167.3 0-63.2-24.6-122.6-69.3-167.3-44.8-44.7-104.2-69.3-167.4-69.3zM749.5 512.3c-133.3 0-241.7-108.4-241.7-241.7 0-64.6 25.1-125.3 70.8-170.9 45.6-45.6 106.3-70.8 170.9-70.8 133.3 0 241.7 108.4 241.7 241.7-.1 133.3-108.5 241.7-241.7 241.7zm0-478.4c-63.2 0-122.7 24.6-167.4 69.3-44.7 44.7-69.3 104.1-69.3 167.4 0 130.5 106.2 236.7 236.7 236.7s236.7-106.2 236.7-236.7C986.1 140.1 880 33.9 749.5 33.9z"
  />
  <path
    d="M956.6 631.7c-64.6 0-125.3-25.1-170.9-70.8C740.1 515.3 715 454.6 715 390c0-64.5 25.1-125.2 70.7-170.8 45.6-45.7 106.3-70.8 170.9-70.8 133.3 0 241.7 108.4 241.7 241.7 0 133.2-108.4 241.6-241.7 241.6zm0-478.4c-63.3 0-122.7 24.6-167.4 69.4-44.7 44.7-69.3 104.1-69.3 167.3 0 63.2 24.6 122.7 69.3 167.4 44.7 44.7 104.1 69.3 167.4 69.3 130.5 0 236.7-106.2 236.7-236.7s-106.2-236.7-236.7-236.7z"
  />
  <path
    d="M542.3 631.9c-64.6 0-125.3-25.1-170.9-70.8-45.6-45.6-70.8-106.3-70.8-170.9 0-64.6 25.1-125.3 70.8-170.9 45.6-45.6 106.3-70.8 170.9-70.8 64.6 0 125.2 25.1 170.9 70.8 45.6 45.6 70.8 106.3 70.8 170.9 0 64.6-25.1 125.2-70.8 170.9-45.7 45.6-106.4 70.8-170.9 70.8zm0-478.4c-63.2 0-122.7 24.6-167.4 69.3-44.7 44.7-69.3 104.1-69.3 167.4 0 63.2 24.6 122.7 69.3 167.4s104.1 69.3 167.4 69.3c63.2 0 122.7-24.6 167.4-69.3 44.7-44.7 69.3-104.1 69.3-167.4 0-63.2-24.6-122.7-69.3-167.4-44.8-44.7-104.2-69.3-167.4-69.3z"
  />
  <path
    id="XMLID_58_"
    d="M542.3 392.5c-43.2 0-85.5-11.5-122.5-33.3-35.9-21.1-65.9-51.4-86.7-87.4l4.3-2.5c20.4 35.3 49.7 64.9 84.9 85.6 36.2 21.3 77.7 32.6 120 32.6 63.2 0 122.7-24.6 167.4-69.3 44.7-44.7 69.3-104.1 69.3-167.4 0-41.7-10.9-82.6-31.6-118.2l4.3-2.5c21.1 36.4 32.3 78.1 32.3 120.7 0 64.6-25.1 125.2-70.8 170.9-45.7 45.7-106.4 70.8-170.9 70.8z"
  />
  <path
    id="XMLID_57_"
    d="M749.5 272.9c-43.3 0-85.7-11.6-122.7-33.4-35.9-21.2-65.9-51.6-86.7-87.7l4.3-2.5c20.4 35.4 49.7 65.1 84.9 85.9 36.2 21.4 77.8 32.7 120.2 32.7 42.3 0 83.8-11.3 119.9-32.6 35.1-20.7 64.5-50.4 85-85.7l4.3 2.5c-20.9 36.1-50.9 66.4-86.8 87.5-36.9 21.8-79.3 33.3-122.4 33.3z"
  />
  <path
    id="XMLID_56_"
    d="M128.1 631.9v-5c63.2 0 122.7-24.6 167.4-69.3s69.3-104.1 69.3-167.4c0-41.6-10.9-82.5-31.7-118.3l4.3-2.5c21.2 36.6 32.3 78.3 32.3 120.8 0 64.6-25.1 125.2-70.8 170.9-45.6 45.6-106.3 70.8-170.8 70.8z"
  />
  <path
    id="XMLID_55_"
    d="M956.6 392.7c-64.6 0-125.3-25.1-170.9-70.8C740.1 276.3 715 215.6 715 151c0-42.7 11.2-84.5 32.3-120.8l4.3 2.5c-20.7 35.6-31.7 76.5-31.7 118.3 0 63.2 24.6 122.7 69.3 167.4 44.7 44.7 104.1 69.3 167.4 69.3 42.3 0 83.8-11.3 120-32.7 35.1-20.7 64.6-50.4 85.1-85.8l4.3 2.5c-20.9 36.1-51 66.4-86.8 87.6-37 21.8-79.4 33.4-122.6 33.4z"
  />
  <path
    d="M749.5 1469c-133.3 0-241.7-108.4-241.7-241.7 0-64.6 25.1-125.3 70.8-170.9 45.6-45.6 106.3-70.7 170.9-70.7 64.5 0 125.2 25.1 170.9 70.7s70.8 106.3 70.8 170.9c-.1 133.3-108.5 241.7-241.7 241.7zm0-478.4c-63.2 0-122.7 24.6-167.4 69.3-44.7 44.7-69.3 104.1-69.3 167.4 0 130.5 106.2 236.7 236.7 236.7s236.7-106.2 236.7-236.7c0-63.3-24.6-122.7-69.4-167.4-44.7-44.7-104.1-69.3-167.3-69.3z"
  />
  <path
    d="M542.3 1349.3c-64.6 0-125.3-25.1-170.9-70.7-45.6-45.6-70.8-106.3-70.8-170.9 0-64.5 25.1-125.2 70.8-170.8C417 891.2 477.7 866 542.3 866c64.6 0 125.2 25.1 170.9 70.8 45.6 45.6 70.8 106.3 70.8 170.8 0 64.6-25.1 125.3-70.8 170.9-45.7 45.7-106.3 70.8-170.9 70.8zm0-478.3c-63.2 0-122.7 24.6-167.4 69.3-44.7 44.7-69.3 104.1-69.3 167.3 0 63.3 24.6 122.7 69.3 167.4 44.7 44.7 104.1 69.3 167.4 69.3 63.2 0 122.7-24.6 167.4-69.3 44.7-44.7 69.3-104.1 69.3-167.4 0-63.2-24.6-122.6-69.3-167.3-44.8-44.7-104.2-69.3-167.4-69.3z"
  />
  <path
    id="XMLID_50_"
    d="M751.6 1467.7l-4.3-2.5c20.7-35.7 31.7-76.7 31.7-118.5 0-130.5-106.2-236.7-236.7-236.7-42.3 0-83.8 11.3-120 32.6-35.2 20.7-64.6 50.3-85 85.6l-4.3-2.5c20.9-36 50.9-66.3 86.8-87.4 37-21.8 79.4-33.3 122.5-33.3 133.3 0 241.7 108.4 241.7 241.7-.1 42.7-11.2 84.5-32.4 121z"
  />
  <path
    id="XMLID_49_"
    d="M335.3 512.3c-43.2 0-85.6-11.5-122.6-33.4-35.9-21.2-65.9-51.5-86.7-87.6l4.3-2.5c20.4 35.4 49.8 65 84.9 85.8 36.2 21.4 77.8 32.7 120.1 32.7 130.5 0 236.7-106.2 236.7-236.7 0-41.7-11-82.6-31.8-118.3l4.3-2.5c21.2 36.5 32.4 78.3 32.4 120.9 0 133.2-108.4 241.6-241.6 241.6z"
  />
  <path
    d="M335.3 751.4C202 751.4 93.6 643 93.6 509.8c0-64.6 25.1-125.3 70.8-170.9 45.6-45.6 106.3-70.8 170.9-70.8 133.3 0 241.7 108.4 241.7 241.7-.1 133.2-108.5 241.6-241.7 241.6zm0-478.3c-63.2 0-122.7 24.6-167.4 69.3-44.7 44.7-69.3 104.1-69.3 167.4 0 130.5 106.2 236.7 236.7 236.7S572 640.3 572 509.8c-.1-130.5-106.2-236.7-236.7-236.7z"
  />
  <path
    d="M335.3 990.6c-64.6 0-125.2-25.2-170.9-70.8-45.6-45.7-70.8-106.4-70.8-170.9 0-64.6 25.1-125.3 70.8-170.9 45.6-45.6 106.3-70.8 170.9-70.8 133.3 0 241.7 108.4 241.7 241.7-.1 133.2-108.5 241.7-241.7 241.7zm0-478.5c-63.2 0-122.7 24.6-167.4 69.3-44.7 44.7-69.3 104.1-69.3 167.4 0 63.2 24.6 122.7 69.3 167.4 44.7 44.7 104.1 69.4 167.4 69.4 130.5 0 236.7-106.2 236.7-236.8-.1-130.5-106.2-236.7-236.7-236.7z"
  />
  <path
    d="M335.3 1229.7C202 1229.7 93.6 1121.3 93.6 988c0-64.6 25.1-125.3 70.8-171 45.6-45.6 106.3-70.8 170.9-70.8 64.5 0 125.2 25.1 170.8 70.8 45.7 45.7 70.8 106.4 70.8 171 0 133.3-108.4 241.7-241.6 241.7zm0-478.4c-63.2 0-122.7 24.6-167.4 69.3-44.7 44.7-69.3 104.2-69.3 167.5 0 130.5 106.2 236.7 236.7 236.7S572 1118.6 572 988.1c0-63.3-24.6-122.7-69.4-167.5-44.7-44.7-104.1-69.3-167.3-69.3z"
  />
  <path
    id="XMLID_42_"
    d="M544.5 1348.1l-4.3-2.5c20.8-35.6 31.8-76.5 31.8-118.2 0-63.3-24.6-122.7-69.4-167.4-44.7-44.7-104.1-69.3-167.3-69.3-42.3 0-83.8 11.3-120 32.6-35.1 20.7-64.5 50.3-85 85.6l-4.3-2.5c20.9-36.1 50.9-66.3 86.8-87.4 37-21.8 79.4-33.3 122.6-33.3 64.5 0 125.2 25.1 170.8 70.7 45.7 45.6 70.8 106.3 70.8 170.9-.1 42.6-11.3 84.4-32.5 120.8z"
  />
  <path
    id="XMLID_41_"
    d="M544.5 1348.1l-4.3-2.5c20.9-36 50.9-66.3 86.8-87.4 37-21.8 79.4-33.3 122.5-33.3 43.1 0 85.5 11.5 122.5 33.3 35.9 21.1 65.9 51.3 86.8 87.4l-4.3 2.5c-20.5-35.3-49.9-64.9-85.1-85.6-36.2-21.3-77.7-32.6-119.9-32.6-42.3 0-83.8 11.3-120 32.6-35.2 20.7-64.5 50.3-85 85.6z"
  />
  <path
    id="XMLID_40_"
    d="M747.3 1467.7c-21.2-36.5-32.3-78.3-32.3-120.9 0-64.5 25.1-125.2 70.7-170.9s106.3-70.8 170.9-70.8c43.2 0 85.5 11.5 122.5 33.3 35.9 21.2 65.9 51.4 86.8 87.6l-4.3 2.5c-20.5-35.4-49.9-65.1-85.1-85.8-36.2-21.3-77.7-32.6-119.9-32.6-63.3 0-122.7 24.6-167.4 69.4-44.7 44.7-69.3 104.1-69.3 167.3 0 41.8 10.9 82.7 31.7 118.4l-4.3 2.5z"
  />
  <path
    id="XMLID_39_"
    d="M954.5 1348c-21.2-36.3-32.3-78-32.3-120.7 0-64.6 25.1-125.3 70.7-170.9s106.3-70.7 170.9-70.7c42.9 0 85 11.4 121.8 32.9 35.7 20.9 65.6 50.8 86.6 86.6l-4.3 2.5c-20.6-35-49.9-64.3-84.9-84.8-36-21.1-77.3-32.2-119.3-32.2-63.3 0-122.7 24.6-167.4 69.3-44.7 44.7-69.3 104.1-69.3 167.4 0 41.8 10.9 82.7 31.7 118.2l-4.2 2.4z"
  />
  <path
    d="M1163.8 1229.7c-64.6 0-125.3-25.1-170.9-70.8-45.6-45.6-70.7-106.3-70.7-170.8 0-64.6 25.1-125.3 70.7-171 45.6-45.6 106.3-70.8 170.9-70.8 64.5 0 125.2 25.1 170.9 70.8 45.7 45.7 70.8 106.4 70.8 171 0 133.2-108.5 241.6-241.7 241.6zm0-478.4c-63.3 0-122.7 24.6-167.4 69.3-44.7 44.7-69.3 104.2-69.3 167.5 0 63.2 24.6 122.6 69.3 167.3 44.7 44.7 104.1 69.4 167.4 69.4 130.5 0 236.7-106.2 236.7-236.7 0-63.3-24.6-122.7-69.4-167.5-44.7-44.7-104.1-69.3-167.3-69.3z"
  />
  <path
    d="M1163.8 990.6c-64.6 0-125.3-25.2-170.9-70.8-45.6-45.6-70.7-106.3-70.7-170.9 0-64.6 25.1-125.3 70.7-170.9 45.6-45.6 106.3-70.8 170.9-70.8 133.3 0 241.7 108.4 241.7 241.7 0 133.3-108.5 241.7-241.7 241.7zm0-478.3c-63.3 0-122.7 24.6-167.4 69.3-44.7 44.7-69.3 104.1-69.3 167.4 0 63.2 24.6 122.6 69.3 167.3 44.7 44.7 104.1 69.4 167.4 69.4 130.5 0 236.7-106.2 236.7-236.7 0-130.6-106.2-236.7-236.7-236.7z"
  />
  <path
    d="M1163.8 751.3c-64.6 0-125.3-25.1-170.9-70.8-45.6-45.6-70.7-106.3-70.7-170.9 0-64.6 25.1-125.3 70.7-170.9 45.6-45.6 106.3-70.8 170.9-70.8 133.3 0 241.7 108.4 241.7 241.7 0 133.3-108.5 241.7-241.7 241.7zm0-478.4c-63.3 0-122.7 24.6-167.4 69.3-44.7 44.7-69.3 104.1-69.3 167.4s24.6 122.7 69.3 167.4c44.7 44.7 104.1 69.3 167.4 69.3 130.5 0 236.7-106.2 236.7-236.7s-106.2-236.7-236.7-236.7z"
  />
  <path
    id="XMLID_32_"
    d="M1163.8 512.3c-64.6 0-125.3-25.1-170.9-70.8-45.6-45.6-70.7-106.3-70.7-170.8 0-42.7 11.2-84.5 32.4-120.9l4.3 2.5c-20.7 35.6-31.7 76.6-31.7 118.4 0 63.2 24.6 122.6 69.3 167.3 44.7 44.7 104.1 69.4 167.4 69.4 41.8 0 82.8-11 118.7-31.9 34.8-20.3 64.2-49.3 84.8-84l4.3 2.5c-21 35.4-51 65.1-86.5 85.8-36.9 21.2-78.8 32.5-121.4 32.5z"
  />
  <path
    id="XMLID_31_"
    d="M540.2 1348c-20.5-35.3-49.8-64.9-85-85.6-36.2-21.3-77.7-32.6-119.9-32.6v-5c43.2 0 85.5 11.5 122.5 33.3 35.9 21.1 65.9 51.3 86.7 87.4l-4.3 2.5z"
  />
  <path
    id="XMLID_30_"
    d="M337.5 1228.5l-4.3-2.5c20.7-35.9 31.6-76.9 31.6-118.4 0-63.2-24.6-122.6-69.3-167.3-44.8-44.7-104.2-69.3-167.4-69.3v-5c64.6 0 125.2 25.1 170.9 70.8 45.6 45.6 70.8 106.3 70.8 170.8 0 42.4-11.2 84.2-32.3 120.9z"
  />
  <path
    id="XMLID_29_"
    d="M128.1 870.9v-5c63.2 0 122.7-24.6 167.4-69.3 44.7-44.7 69.3-104.1 69.3-167.4 0-63.2-24.6-122.7-69.3-167.4-44.7-44.7-104.1-69.3-167.4-69.3v-5c64.6 0 125.3 25.1 170.9 70.8 45.6 45.6 70.8 106.3 70.8 170.9 0 64.6-25.1 125.3-70.8 170.9-45.7 45.6-106.4 70.8-170.9 70.8z"
  />
  <path
    id="XMLID_28_"
    d="M130.3 869.8l-4.3-2.5c20.7-35.9 31.7-76.8 31.7-118.3 0-41.6-10.9-82.5-31.6-118.3l4.3-2.5c21.1 36.6 32.3 78.4 32.3 120.8-.1 42.3-11.3 84.1-32.4 120.8z"
  />
  <path
    id="XMLID_27_"
    d="M130.3 1108.9l-4.3-2.5c20.7-35.7 31.7-76.6 31.7-118.2 0-41.6-10.9-82.5-31.7-118.4l4.3-2.5c21.2 36.6 32.3 78.4 32.3 120.9 0 42.4-11.2 84.2-32.3 120.7z"
  />
  <path
    id="XMLID_26_"
    d="M130.2 630.6l-4.3-2.5c20.7-35.9 31.7-76.9 31.7-118.3 0-41.6-11-82.5-31.7-118.5l4.3-2.5c21.2 36.7 32.4 78.6 32.4 121 0 42.3-11.2 84.1-32.4 120.8z"
  />
  <path
    id="XMLID_25_"
    d="M128.1 392.5v-5c42.3 0 83.8-11.3 120-32.6 35.2-20.7 64.5-50.3 84.9-85.6l4.3 2.5c-20.8 36-50.8 66.2-86.7 87.4-37 21.8-79.4 33.3-122.5 33.3z"
  />
  <path
    d="M956.6 871c-64.6 0-125.3-25.1-170.9-70.8-45.6-45.6-70.7-106.3-70.7-170.8 0-64.6 25.1-125.3 70.7-170.9 45.6-45.6 106.3-70.8 170.9-70.8 133.3 0 241.7 108.4 241.7 241.7 0 133.2-108.4 241.6-241.7 241.6zm0-478.3c-63.3 0-122.7 24.6-167.4 69.3-44.7 44.7-69.3 104.1-69.3 167.4 0 63.2 24.6 122.6 69.3 167.3 44.7 44.7 104.1 69.3 167.4 69.3 130.5 0 236.7-106.2 236.7-236.6 0-130.5-106.2-236.7-236.7-236.7z"
  />
  <path
    id="XMLID_22_"
    d="M1370.7 631.9c-133.3 0-241.7-108.4-241.7-241.7 0-42.4 11.3-84.3 32.6-121l4.3 2.5c-20.9 36-31.9 77-31.9 118.5 0 130.5 106.2 236.7 236.7 236.7v5z"
  />
  <path
    id="XMLID_21_"
    d="M1370.7 871c-133.3 0-241.7-108.4-241.7-241.6 0-133.3 108.4-241.7 241.7-241.7v5c-130.5 0-236.7 106.2-236.7 236.7S1240.2 866 1370.7 866v5z"
  />
  <path
    id="XMLID_20_"
    d="M1370.7 1110c-133.3 0-241.7-108.4-241.7-241.7 0-133.3 108.4-241.7 241.7-241.7h.5v5h-.5c-130.5 0-236.7 106.2-236.7 236.7s106.2 236.7 236.7 236.7v5z"
  />
  <path
    id="XMLID_19_"
    d="M1161.4 1228.5c-21.1-36.8-32.3-78.6-32.3-120.9 0-133.2 108.4-241.6 241.7-241.6v5c-130.5 0-236.7 106.1-236.7 236.6 0 41.3 10.9 82.3 31.6 118.4l-4.3 2.5z"
  />
  <path
    id="XMLID_18_"
    d="M335.3 273.1v-5c42.3 0 83.7-11.3 119.9-32.6 35.1-20.7 64.5-50.3 85-85.7l4.3 2.5c-20.9 36.1-50.9 66.3-86.8 87.5-36.9 21.8-79.3 33.3-122.4 33.3z"
  />
  <path
    id="XMLID_17_"
    d="M543.8 153.3v-5c42-.3 83.2-11.7 119.1-32.9 34.9-20.7 64.1-50.2 84.5-85.3l4.3 2.5c-20.8 35.8-50.6 65.9-86.2 87-36.8 21.8-78.9 33.5-121.7 33.7z"
  />
  <path
    id="XMLID_16_"
    d="M956.6 153.5c-43.2 0-85.5-11.5-122.6-33.4-35.9-21.2-65.9-51.4-86.7-87.5l4.3-2.5c20.4 35.3 49.8 64.9 85 85.7 36.2 21.4 77.7 32.7 120 32.7v5z"
  />
  <path
    id="XMLID_15_"
    d="M1163.8 273.1c-43.3 0-85.7-11.6-122.7-33.4-35.9-21.2-65.9-51.5-86.9-87.7l4.3-2.5c20.5 35.4 49.9 65.1 85.1 85.9 36.3 21.4 77.8 32.7 120.2 32.7v5z"
  />
  <path
    id="XMLID_14_"
    d="M1370.7 392.7c-43.2-.3-85.5-11.9-122.4-33.7-35.9-21.2-65.8-51.4-86.7-87.3l4.3-2.5c20.4 35.2 49.7 64.8 84.9 85.5 36.2 21.3 77.6 32.8 119.9 33v5z"
  />
  <path
    id="XMLID_13_"
    d="M1370 632.7c-22.1-37.3-33.8-79.8-33.8-122.9 0-42.4 11.3-84.2 32.6-120.8l4.3 2.5c-20.9 35.9-31.9 76.8-31.9 118.3 0 42.2 11.4 83.9 33.1 120.4l-4.3 2.5z"
  />
  <path
    id="XMLID_11_"
    d="M1368.4 869.6c-21.1-36.7-32.3-78.4-32.3-120.6 0-42.2 11.2-84.1 32.4-121l4.3 2.5c-20.7 36.1-31.7 77.1-31.7 118.5 0 41.3 10.9 82.1 31.6 118.1l-4.3 2.5z"
  />
  <path
    id="XMLID_8_"
    d="M1368.6 1108.8c-21.1-36.7-32.3-78.4-32.3-120.6 0-42.4 11.3-84.2 32.6-120.9l4.3 2.5c-20.9 35.9-31.9 76.9-31.9 118.4 0 41.4 10.9 82.2 31.6 118.1l-4.3 2.5z"
  />
  <path
    id="XMLID_7_"
    d="M958.8 1348l-4.3-2.5c20.8-36 50.8-66.3 86.8-87.4 37-21.8 79.4-33.3 122.6-33.3v5c-42.3 0-83.8 11.3-120 32.6-35.4 20.7-64.8 50.3-85.1 85.6z"
  />
  <path
    id="XMLID_6_"
    d="M751.6 1467.7l-4.3-2.5c20.8-36.1 50.8-66.5 86.8-87.7 37-21.8 79.4-33.3 122.6-33.3v5c-42.3 0-83.8 11.3-120.1 32.6-35.3 20.8-64.6 50.5-85 85.9z"
  />
  <path
    id="XMLID_5_"
    d="M747.4 1467.7c-20.4-35.4-49.8-65.1-85-85.9-36.2-21.4-77.7-32.7-120-32.7v-5c43.2 0 85.6 11.5 122.6 33.3 35.9 21.2 66 51.5 86.8 87.7l-4.4 2.6z"
  />
  <path
    id="XMLID_4_"
    d="M333 1228.5c-20.4-35.4-49.7-65-84.9-85.8-36.2-21.3-77.7-32.6-120-32.6v-5c43.2 0 85.5 11.5 122.5 33.3 35.9 21.2 65.9 51.5 86.7 87.6l-4.3 2.5z"
  />
  <path
    d="M749.5 751.5c-64.6 0-125.3-25.1-170.9-70.8-45.6-45.6-70.8-106.3-70.8-170.9s25.1-125.3 70.8-170.9c45.6-45.6 106.3-70.8 170.9-70.8 133.3 0 241.7 108.4 241.7 241.7-.1 133.3-108.5 241.7-241.7 241.7zm0-478.4c-63.2 0-122.7 24.6-167.4 69.3-44.7 44.7-69.3 104.1-69.3 167.4s24.6 122.7 69.3 167.4c44.7 44.7 104.1 69.3 167.4 69.3 130.5 0 236.7-106.2 236.7-236.7-.1-130.5-106.2-236.7-236.7-236.7z"
  />
  <path
    id="XMLID_1_"
    d="M128.1 1110v-5c130.5 0 236.7-106.2 236.7-236.7 0-63.2-24.6-122.7-69.3-167.4-44.7-44.7-104.1-69.3-167.4-69.3v-5c64.6 0 125.3 25.1 170.9 70.8 45.6 45.6 70.8 106.3 70.8 170.9 0 133.3-108.5 241.7-241.7 241.7z"
  />
</svg>
