<svg xmlns="http://www.w3.org/2000/svg" viewBox="0 0 10 126"><path fill="#fbf9f9" d="M1.1 0c2.1 2.4 3.3 4 3.8 4.7h.2C5.6 4 6.8 2.4 8.8 0H1.1zM0 1.1v7.5c2.2-2 3.8-3.2 4.6-3.7-.7-.5-2.2-1.8-4.6-3.8zm10 0C7.6 3.2 6.1 4.4 5.4 4.9c.8.5 2.4 1.7 4.6 3.6V1.1zM5 5.6c-.5.9-1.7 2.4-3.5 4.5 1.8 2 2.9 3.5 3.5 4.4.6-.9 1.8-2.4 3.5-4.5C6.7 7.9 5.6 6.4 5 5.6zm-5 5.9v6.7c1.9-1.6 3.3-2.7 4.3-3.3-.9-.6-2.4-1.7-4.3-3.4zm10 0c-1.9 1.7-3.4 2.8-4.3 3.4 1 .6 2.4 1.7 4.3 3.3v-6.7zM5 16c-.6.9-1.7 2.3-3.2 4 1.5 1.8 2.6 3.2 3.2 4.1.6-1 1.7-2.3 3.2-4C6.7 18.3 5.6 16.9 5 16zm-5 5.9v6c1.6-1.4 2.9-2.4 3.8-3-.9-.6-2.2-1.6-3.8-3zm10 0c-1.6 1.3-2.9 2.4-3.8 3 .9.7 2.2 1.6 3.8 3v-6zm-5 4.6c-.6.9-1.5 2.1-2.8 3.6 1.2 1.4 2.2 2.7 2.8 3.6.6-1 1.6-2.2 2.8-3.6-1.2-1.4-2.2-2.7-2.8-3.6zm5 5.7c-1.4 1.2-2.5 2.1-3.4 2.6.9.7 2.1 1.6 3.4 2.7v-5.3zm-10 .1v5.3c1.3-1.2 2.5-2.1 3.4-2.6-.9-.6-2-1.5-3.4-2.7zm5 4.6c-.6.9-1.4 1.9-2.5 3.2 1.1 1.2 1.9 2.3 2.5 3.2.6-.9 1.4-2 2.5-3.2-1.1-1.2-1.9-2.3-2.5-3.2zm5 5.6c-1.2 1-2.2 1.8-3 2.3.8.6 1.9 1.4 3 2.4v-4.7zm-10 .1v4.7c1.1-1 2.2-1.8 3-2.3-.8-.6-1.8-1.4-3-2.4zm5 4.7c-.6.8-1.3 1.7-2.2 2.8.9 1 1.6 2 2.2 2.8.6-.8 1.3-1.8 2.2-2.8-.9-1-1.6-2-2.2-2.8zm-5 5.6V57c1-.8 1.9-1.5 2.6-2-.7-.6-1.6-1.3-2.6-2.1zm10 0c-1 .8-1.9 1.5-2.6 2 .7.6 1.6 1.3 2.6 2.1v-4.1zm-5 4.8c-.5.7-1.1 1.5-1.9 2.4.7.9 1.4 1.7 1.9 2.4.5-.7 1.2-1.5 1.9-2.4-.7-.9-1.4-1.7-1.9-2.4zm-5 5.4v3.6c.8-.7 1.6-1.2 2.3-1.8-.7-.5-1.5-1.1-2.3-1.8zm10 .1c-.8.7-1.6 1.3-2.3 1.8.7.5 1.5 1 2.3 1.8v-3.6zM5 68c-.5.6-1 1.3-1.7 2.1.7.7 1.2 1.4 1.7 2.1.5-.7 1-1.4 1.7-2.1C6 69.3 5.5 68.6 5 68zm-5 5.4v3.1c.7-.6 1.3-1.1 1.9-1.5L0 73.4zm10 0L8.1 75c.6.4 1.2.9 1.9 1.5v-3.1zm-5 4.9c-.4.6-.9 1.2-1.4 1.8.5.6 1 1.2 1.4 1.8.4-.6.9-1.2 1.4-1.8-.5-.6-1-1.2-1.4-1.8zm-5 5.4v2.6L1.6 85 0 83.7zm10 0L8.4 85l1.6 1.3v-2.6zm-5 4.9l-1.2 1.5L5 91.6l1.2-1.5L5 88.6zm-5 5.3v2.2c.5-.4.9-.8 1.3-1.1-.4-.3-.8-.7-1.3-1.1zm10 0c-.5.4-.9.8-1.3 1.1.4.3.8.7 1.3 1.1v-2.2zm-5 5c-.3.4-.7.8-1 1.2.4.4.7.8 1 1.2.3-.4.7-.8 1-1.2-.4-.4-.7-.8-1-1.2zm-5 5.3v1.7c.4-.3.7-.6 1.1-.8-.4-.3-.7-.6-1.1-.9zm10 0l-1.1.8c.4.3.7.6 1.1.9v-1.7zm-5 5c-.3.3-.5.6-.8.9.3.3.6.6.8.9.3-.3.5-.6.8-.9-.3-.3-.6-.6-.8-.9zm-5 5.2v1.3c.3-.2.5-.5.8-.6-.3-.2-.5-.5-.8-.7zm10 0c-.3.2-.5.4-.8.6.3.2.5.5.8.7v-1.3zm-5 5c-.2.2-.4.5-.6.7.2.3.4.5.6.7.2-.2.4-.5.6-.7-.2-.2-.4-.5-.6-.7zm-5 5.2v.9c.2-.2.4-.3.6-.4-.2-.2-.4-.3-.6-.5zm10 0c-.2.1-.4.3-.6.4.2.2.4.3.6.5v-.9z"/></svg>
