<svg xmlns="http://www.w3.org/2000/svg" viewBox="0 0 100 100">
  <path d="M86.4 22.4C83 19 5.3-18.3 7.6 36.5c-0.2 3.6-1.4 26.7 8.9 33 8.3 4.3 13.5 3.2 19.8 2.8 0 0 32-5 32-5 4-0.2 13.5-1 13.9 6-0.1 6.6-3.8 11-6.6 14-3.1 3.4-9.6 8.8-6.1 10.8 5.4 1.7 29.4-23.2 27.1-57C95.4 31.7 93.2 27.7 86.4 22.4ZM30.1 41.9C25.5 83.3 13.6 33.8 23.7 19.5 31.2 8.9 30.1 36.7 30.1 41.9Zm20-10.7c-4.7-2.1 0.3 18.9-5.2 26.7-13.5 11.2-7.2-54.8 4-35.2 14.3-8.4 15.6 15.2 1.2 8.5zm27.5 5.5c-0.4-1.1-0.5-3.4-2.7-3.6-2.2-0.2-3.6 2.2-3.6 2.2 0 0-5.9 5.7-4 12.8 2.1 7.7 10.7-1.4 10.7 4.4 0 4.3-7.2 6.3-10.9 5.1-5.5-1.8-6.5-8.3-6.8-10.7-0.1-1.3-0.9-10.9 6-16 5-4.9 11.7-4.9 13.9-2.6 2.3 2.3 2.4 3.3 2.6 5.4 0.3 6.3-4.3 5.5-5.2 3z" fill="none"/><path d="M32.4 0C15.6-0.2 0.9 7.2 0 34.4c-0.5 13.9 2.2 32.4 13 38 13.6 7.2 38-0.3 38-0.3 0 0 12.6-2.8 19.8-3.5 3.8-0.4 5.8 0.3 6.9 1.8 4.2 7.4-5 17.5-8.6 21.5-5.1 5.6-1 9.1 2.6 7.9 10.7-5.1 26.2-26.6 28.1-53.8 2.6-25.8-21-33.9-30-37.3C59.7 4.9 45.4 0.1 32.4 0ZM35.8 6.9c21.8 0.3 48.6 13.6 50.6 15.5 6.8 5.3 9.1 9.3 10.2 18.6 2.2 33.8-21.8 58.8-27.2 57.1-3.5-2 3-7.4 6.1-10.8 2.8-3.1 6.4-7.5 6.6-14-0.4-6.9-9.9-6.2-13.9-6l-32 5C29.9 72.7 24.7 73.8 16.4 69.5 6.1 63.2 7.3 40.1 7.5 36.5 6.6 13.4 19.9 6.7 35.8 6.9Zm-9.2 10.3c-0.8 0-1.8 0.8-2.9 2.4-10.1 14.3 1.8 63.8 6.4 22.4 0-4.5 0.8-25-3.5-24.8zm18.3 1.9c-8.5-0.7-11.9 48.7-0.1 38.9 5.5-7.8 0.6-28.8 5.2-26.7 14.4 6.7 13.1-16.9-1.2-8.5-1.4-2.4-2.7-3.6-3.9-3.7zm31.1 7.3c-3-0.1-5.3 0.5-9 3.1-6.9 5.1-6.7 16.1-6.6 17.4 0.2 2.4 1.3 9 6.8 10.7 3.7 1.2 10.9-0.8 10.9-5.1 0-5.9-8.7 3.2-10.7-4.4-1.9-7.1 2.2-11.7 2.2-11.7 0 0 2.5-3.6 5.4-3.3 2.1 0.3 2.3 2.5 2.7 3.6 0.9 2.5 5.6 3.3 5.4-3.1-0.2-2.1-0.4-3.2-2.6-5.4-0.9-0.8-2.6-1.8-4.4-1.9z"/>
</svg>
