<!--*- coding: utf-8 -*- svg -*- assets/img/svg/logogram-color.svg *************

  This source file is part of OpenINF

********************************************************************************

  The OpenINF logogram in its primary brand color

*****************************************************************************-->
<svg xmlns="http://www.w3.org/2000/svg" viewBox="0 0 100 100">
  <title>The OpenINF Logogram in Color</title>
  <circle cx="50" cy="50" r="45" fill="none" stroke="#089" stroke-width="10" />
  <path
    fill="#089"
    d="M56.55 20c-3.87 0-7.49 3-7.49 6.98 0 4 3.62 7.08 7.49 7A7.26 7.26 0 0 0 64.03 27c0-3.96-3.6-7-7.48-7zm-6.36 20.33c-4.59 0-10.49.71-13.92 4.06-6.19 6 3.1 12.4 7.91 15.09-2.08 7.5-6.14 19.75 5.84 20.5 4.48.12 10.55-.6 13.76-4.12 5.78-6.4-2.24-12.34-7.42-15.15 2.16-7.62 6.07-20.09-6.17-20.38zm-8.47 5.14c1.45-.1 3.04.34 3.85 1.03l.02.02c2.06 1.72.42 6.48-.09 8.49-1.76-1.08-7.24-4.6-6.76-7.42.24-1.4 1.54-2.02 2.98-2.11zm13.39 19.67c2.8 1.61 4.96 3.37 5.61 5.38.93 3-3.08 5.13-5.35 3.5-2.49-1.87-.94-6.55-.26-8.88z"
  />
</svg>
