<!--*- coding: utf-8 -*- svg -*- assets/img/svg/publicdomain.svg ***************

  This source file is part of OpenINF

********************************************************************************

  The public domain web badge

*****************************************************************************-->
<svg xmlns="http://www.w3.org/2000/svg" viewBox="0 0 81 21">
  <title>The Public Domain Software Web Badge (As Self-Declared)</title>
  <desc>
    The “public domain” license badge is used on documents free of known
    copyright. The image is a link to a document that clarifies the meaning of
    the public domain and identifies any exceptions.
  </desc>
  <defs>
    <style>
      .cls-1 {
        fill: #16161d;
      }
      .cls-2 {
        fill: #e2e2e9;
      }
    </style>
  </defs>
  <rect class="cls-1" x="10" y="3" width="71" height="15" />
  <rect class="cls-2" x="10" y="4" width="71" height="13" />
  <rect class="cls-1" x="10" y="5" width="71" height="11" />
  <path
    class="cls-2"
    d="M35,13h2.5L39,11.5l-.5-1,.5-1L37.5,8H35Zm2-1H36V11h2Zm-1-2V9h1l1,1Z"
  />
  <path class="cls-2" d="M28,8H25v5h1V11h2l1-1V9Zm-.5,2H26V9h1.5l.5.5Z" />
  <polygon
    class="cls-2"
    points="79 8 79 11.5 76 8 75 8 75 13 76 13 76 9.5 79 13 80 13 80 8 79 8"
  />
  <path class="cls-2" d="M71,8H69L68,9v4h1V11h2v2h1V9Zm0,2H69V9h2Z" />
  <rect class="cls-2" x="73" y="8" width="1" height="5" />
  <rect class="cls-2" x="44" y="8" width="1" height="5" />
  <path
    class="cls-2"
    d="M59.5,8h-2L56,9.5v2L57.5,13h2L61,11.5v-2Zm.5,3-1,1H58l-1-1V10l1-1h1l1,1Z"
  />
  <path class="cls-2" d="M53.5,8H51v5h2.5L55,11.5v-2Zm.5,3-1,1H52V9h1l1,1Z" />
  <polygon
    class="cls-2"
    points="50 8 47.5 8 46 9.5 46 11.5 47.5 13 50 13 50 12 48 12 47 11 47 10 48 9 50 9 50 8"
  />
  <path class="cls-2" d="M41,12h2v1H40V8h1Z" />
  <polygon
    class="cls-2"
    points="66 8 64.5 9.5 63 8 62 8 62 13 63 13 63 9.5 64.5 11 66 9.5 66 13 67 13 67 8 66 8"
  />
  <polyline
    class="cls-2"
    points="32 12 31 11.5 31 8 30 8 30 12 32 13 32 13 34 12 34 8 33 8 33 11.5 32 12"
  />
  <path
    class="cls-1"
    d="M11.5,20A9.5,9.5,0,1,1,21,10.5,9.51,9.51,0,0,1,11.5,20Zm5.77-9.46s0-.12,0-.17H14.35l.17.17Z"
  />
  <path
    class="cls-2"
    d="M11.5,2A8.5,8.5,0,1,1,3,10.5,8.51,8.51,0,0,1,11.5,2M9,6.44a4.77,4.77,0,0,1,7.14,2.93H13.85A2.61,2.61,0,0,0,11.5,7.9a2.64,2.64,0,0,0-.89.15l3.49,3.49h2.06a4.59,4.59,0,0,1-.6,1.46L17,14.44A6.76,6.76,0,0,0,7.56,5L9,6.44m2.5,10.83a6.73,6.73,0,0,0,4-1.29L14,14.54A4.77,4.77,0,0,1,7.46,8L6,6.53A6.77,6.77,0,0,0,11.5,17.27m0-4.17a2.6,2.6,0,0,0,.93-.17L9.07,9.57A2.6,2.6,0,0,0,11.5,13.1M11.5,0A10.5,10.5,0,1,0,22,10.5,10.51,10.51,0,0,0,11.5,0Z"
  />
</svg>
